<?xml version="1.0" standalone="no"?>
<!DOCTYPE svg PUBLIC "-//W3C//DTD SVG 20010904//EN"
 "http://www.w3.org/TR/2001/REC-SVG-20010904/DTD/svg10.dtd">
<svg version="1.0" xmlns="http://www.w3.org/2000/svg"
 width="1024.000000pt" height="1024.000000pt" viewBox="0 0 1024.000000 1024.000000"
 preserveAspectRatio="xMidYMid meet">

<g transform="translate(0.000000,1024.000000) scale(0.100000,-0.100000)"
fill="#000000" stroke="none">
<path d="M2981 7974 c-36 -7 -88 -25 -117 -40 -55 -28 -154 -109 -154 -126 0
-6 7 -5 18 3 15 13 16 12 3 -3 -7 -10 -17 -16 -21 -13 -5 3 -16 -5 -24 -17
-19 -26 -21 -42 -4 -32 7 4 8 3 4 -5 -4 -6 -12 -9 -17 -5 -5 3 -17 -12 -26
-33 -44 -104 -43 -71 -43 -1440 l0 -1302 -256 -3 c-255 -3 -256 -3 -275 -27
-26 -31 -25 -128 1 -212 21 -67 78 -165 95 -162 12 2 55 -37 55 -49 0 -5 -11
4 -25 19 -13 15 -25 23 -25 18 0 -12 67 -78 114 -113 30 -23 52 -29 41 -12 -3
6 1 7 10 3 12 -4 14 -8 4 -13 -16 -10 44 -41 135 -69 l68 -21 2570 0 c2835 0
2619 -5 2752 62 67 34 196 132 196 150 0 7 -15 -1 -32 -18 l-33 -29 29 32 c16
18 32 30 36 28 12 -8 32 23 24 36 -4 7 -3 9 4 5 16 -10 66 81 66 121 0 18 3
28 7 21 11 -17 32 101 26 146 -4 27 -15 49 -32 63 -26 23 -31 23 -275 23
l-250 0 -2 1338 -3 1337 -33 69 c-18 38 -35 66 -39 63 -8 -8 -33 12 -33 26 0
6 7 2 15 -9 8 -10 15 -15 15 -10 0 13 -61 86 -73 86 -6 0 0 -12 14 -27 15 -18
11 -16 -14 6 -38 36 -50 54 -19 30 13 -11 13 -9 -2 9 -11 12 -26 20 -33 17 -8
-2 -11 0 -8 5 9 14 -89 60 -164 76 -98 20 -4174 19 -4270 -2z m132 -1 c-7 -2
-19 -2 -25 0 -7 3 -2 5 12 5 14 0 19 -2 13 -5z m560 0 c-7 -2 -21 -2 -30 0
-10 3 -4 5 12 5 17 0 24 -2 18 -5z m724 1 c-3 -3 -12 -4 -19 -1 -8 3 -5 6 6 6
11 1 17 -2 13 -5z m146 -1 c-7 -2 -19 -2 -25 0 -7 3 -2 5 12 5 14 0 19 -2 13
-5z m85 0 c-10 -2 -26 -2 -35 0 -10 3 -2 5 17 5 19 0 27 -2 18 -5z m1212 3 c0
-2 -7 -7 -16 -10 -8 -3 -12 -2 -9 4 6 10 25 14 25 6z m237 -2 c-3 -3 -12 -4
-19 -1 -8 3 -5 6 6 6 11 1 17 -2 13 -5z m560 0 c-3 -3 -12 -4 -19 -1 -8 3 -5
6 6 6 11 1 17 -2 13 -5z m231 -1 c-10 -2 -26 -2 -35 0 -10 3 -2 5 17 5 19 0
27 -2 18 -5z m285 0 c-23 -2 -64 -2 -90 0 -26 2 -7 3 42 3 50 0 71 -1 48 -3z
m-4136 -9 c-3 -3 -12 -4 -19 -1 -8 3 -5 6 6 6 11 1 17 -2 13 -5z m4240 0 c-3
-3 -12 -4 -19 -1 -8 3 -5 6 6 6 11 1 17 -2 13 -5z m-4347 -28 c0 -2 -7 -7 -16
-10 -8 -3 -12 -2 -9 4 6 10 25 14 25 6z m4450 -6 c8 -5 11 -10 5 -10 -5 0 -17
5 -25 10 -8 5 -10 10 -5 10 6 0 17 -5 25 -10z m-129 -192 c51 -15 114 -70 141
-121 21 -41 21 -42 20 -1282 0 -682 -1 -1262 -1 -1288 -1 -37 -7 -54 -26 -72
l-24 -25 -2226 0 -2226 0 -24 25 c-14 13 -25 36 -26 52 0 15 -1 594 -1 1286
l-1 1257 24 47 c28 53 80 98 135 118 33 12 376 14 2118 15 1550 0 2089 -3
2117 -12z m349 -32 c0 -12 -5 -7 -19 24 -11 24 -11 24 3 6 9 -11 16 -24 16
-30z m-4934 -43 c-8 -15 -15 -25 -16 -21 0 12 23 58 27 54 3 -2 -2 -17 -11
-33z m4961 -45 c-3 -8 -6 -5 -6 6 -1 11 2 17 5 13 3 -3 4 -12 1 -19z m-4980
-35 c-3 -10 -5 -4 -5 12 0 17 2 24 5 18 2 -7 2 -21 0 -30z m4990 -40 c-3 -10
-5 -4 -5 12 0 17 2 24 5 18 2 -7 2 -21 0 -30z m-5000 -1925 c-1 -359 -2 -68
-2 647 0 715 1 1009 2 653 2 -355 2 -940 0 -1300z m5000 1860 c-3 -8 -6 -5 -6
6 -1 11 2 17 5 13 3 -3 4 -12 1 -19z m0 -215 c-2 -38 -3 -7 -3 67 0 74 1 105
3 68 2 -38 2 -98 0 -135z m0 -460 c-1 -65 -3 -14 -3 112 0 127 2 180 3 118 2
-62 2 -165 0 -230z m0 -145 c-3 -8 -6 -5 -6 6 -1 11 2 17 5 13 3 -3 4 -12 1
-19z m0 -151 c-2 -23 -3 -1 -3 48 0 50 1 68 3 42 2 -26 2 -67 0 -90z m0 -684
c-1 -120 -2 -24 -2 212 0 237 1 335 2 218 2 -116 2 -310 0 -430z m0 -650 c-1
-81 -3 -17 -3 142 0 160 2 226 3 148 2 -78 2 -208 0 -290z m-5539 -263 c-7
-10 -14 -17 -17 -15 -4 4 18 35 25 35 2 0 -1 -9 -8 -20z m-11 -82 c-2 -13 -4
-5 -4 17 -1 22 1 32 4 23 2 -10 2 -28 0 -40z m6110 -10 c-2 -13 -4 -3 -4 22 0
25 2 35 4 23 2 -13 2 -33 0 -45z m-6058 -165 c12 -24 19 -43 16 -43 -5 0 -45
75 -45 86 0 11 6 2 29 -43z m191 -219 c0 -3 -13 4 -30 16 -16 12 -30 24 -30
26 0 3 14 -4 30 -16 17 -12 30 -24 30 -26z m5560 -38 c0 -2 -7 -6 -15 -10 -8
-3 -15 -1 -15 4 0 6 7 10 15 10 8 0 15 -2 15 -4z m-5410 -31 c19 -7 28 -14 20
-14 -8 0 -28 6 -45 14 -39 17 -21 18 25 0z m73 -22 c-7 -2 -19 -2 -25 0 -7 3
-2 5 12 5 14 0 19 -2 13 -5z m5194 1 c-3 -3 -12 -4 -19 -1 -8 3 -5 6 6 6 11 1
17 -2 13 -5z m-1314 -11 c-706 -2 -1860 -2 -2565 0 -706 1 -129 2 1282 2 1411
0 1988 -1 1283 -2z"/>
<path d="M3020 7731 c-72 -22 -128 -71 -154 -133 -14 -33 -16 -182 -16 -1313
l0 -1276 25 -24 24 -25 2220 0 2220 0 20 26 21 27 -2 1293 -3 1292 -30 43
c-18 26 -50 53 -80 68 l-49 26 -2086 2 c-1147 1 -2096 -2 -2110 -6z m1600
-634 c12 -13 64 -120 116 -237 76 -175 94 -224 94 -264 1 -214 -292 -271 -375
-74 -24 59 -16 69 9 12 31 -67 69 -101 131 -115 131 -29 240 69 222 199 -7 52
-183 453 -208 475 -20 16 -62 17 -579 17 -517 0 -559 -1 -579 -17 -31 -27
-211 -456 -211 -504 0 -112 99 -192 214 -175 59 9 111 53 143 121 17 37 22 42
18 20 -9 -48 -57 -108 -105 -133 -92 -47 -215 -11 -260 78 -38 74 -30 112 74
354 51 121 103 230 114 243 l20 23 570 0 570 0 22 -23z m2108 -246 c38 -1 58
-7 72 -21 20 -20 20 -33 20 -635 l0 -615 -172 0 -173 0 3 617 c2 547 4 619 18
634 23 25 23 25 232 20z m-3044 -366 c40 -61 136 -89 210 -61 54 21 81 50 107
112 17 43 19 45 14 14 -19 -117 -158 -184 -271 -130 -52 25 -104 96 -104 139
1 22 3 21 14 -11 8 -21 21 -49 30 -63z m407 -4 c28 -38 94 -71 140 -71 77 1
145 54 175 139 11 31 13 33 14 10 0 -14 -13 -46 -29 -71 -58 -92 -187 -117
-269 -51 -41 33 -82 97 -81 128 0 12 6 6 14 -17 7 -20 24 -51 36 -67z m2094
-37 c42 -17 45 -43 45 -463 l0 -400 -170 -3 -170 -3 0 413 0 413 25 24 c23 24
30 25 139 25 63 0 122 -3 131 -6z m-2713 -413 c-2 -253 -2 -269 17 -292 19
-23 25 -24 193 -29 l173 -6 -173 -2 c-172 -2 -173 -2 -197 23 l-25 24 0 271 0
270 -60 0 -60 0 0 -310 c0 -326 4 -358 45 -374 9 -3 302 -6 651 -6 l635 0 24
25 25 24 0 321 0 320 -60 0 -60 0 0 -270 0 -271 -25 -25 c-24 -24 -25 -24
-192 -22 l-168 3 -5 208 c-5 202 -6 209 -28 227 -28 23 -111 34 -208 28 -116
-8 -113 -1 -117 -247 l-2 -206 -3 211 c-3 263 -12 248 157 252 135 4 184 -9
201 -53 6 -15 10 -114 10 -221 l0 -194 149 0 c145 0 197 8 213 33 4 7 8 135 8
285 l0 272 70 0 70 0 0 -329 0 -328 -26 -27 -27 -26 -644 0 -645 0 -29 29 -29
29 0 326 0 326 73 0 72 0 -3 -269z m2137 85 c20 -18 21 -28 21 -278 l0 -258
-172 0 -173 0 5 261 5 261 25 20 c22 18 36 19 146 16 103 -2 125 -6 143 -22z"/>
<path d="M6506 6824 c-14 -14 -16 -84 -16 -625 l0 -609 160 0 160 0 0 605 c0
592 0 605 -20 625 -18 18 -33 20 -144 20 -100 0 -128 -3 -140 -16z"/>
<path d="M5925 6415 l-25 -24 0 -401 0 -400 158 0 157 0 -3 407 c-3 488 13
443 -154 443 -102 0 -110 -1 -133 -25z"/>
<path d="M5343 6121 c-40 -18 -43 -40 -43 -290 l0 -241 160 0 160 0 0 248 c0
303 10 283 -147 288 -59 2 -118 0 -130 -5z"/>
<path d="M7500 3160 l0 -610 115 0 115 0 0 285 c0 231 3 292 15 322 19 44 19
54 0 29 -8 -11 -15 -15 -15 -9 0 6 7 16 15 23 8 7 15 9 15 4 0 -4 12 4 28 18
15 14 37 31 49 37 32 16 145 14 169 -4 26 -20 39 -19 23 3 -7 9 0 5 17 -11 16
-15 31 -40 32 -55 2 -15 6 -165 8 -334 l5 -308 115 0 115 0 -3 338 -3 337 -28
60 c-27 59 -81 125 -101 125 -6 0 6 -17 25 -37 41 -43 69 -83 69 -97 0 -6 -13
10 -29 35 -15 24 -40 55 -54 68 -15 13 -24 28 -21 33 3 5 -16 18 -43 30 -72
34 -209 32 -278 -2 -27 -14 -49 -30 -48 -36 1 -7 -8 -20 -20 -30 l-22 -19 19
23 c11 12 15 22 9 22 -16 0 -44 -36 -40 -51 2 -8 2 -11 0 -7 -3 5 -13 3 -24
-2 -13 -7 -19 -7 -19 0 0 5 5 10 10 10 6 0 10 77 10 210 l0 210 -115 0 -115 0
0 -610z m33 593 c-10 -4 -13 -131 -13 -589 l0 -584 95 0 95 0 3 278 2 277 3
-285 2 -285 -105 3 -105 3 0 595 c0 559 1 594 18 593 10 0 12 -3 5 -6z m44 1
c-3 -3 -12 -4 -19 -1 -8 3 -5 6 6 6 11 1 17 -2 13 -5z m141 -196 c-2 -203 -6
-179 -10 70 -2 72 0 132 5 132 4 0 6 -91 5 -202z m412 -128 c19 -11 31 -19 25
-19 -5 0 -26 8 -45 19 -19 11 -30 19 -25 19 6 0 26 -8 45 -19z m-271 -3 c-2
-1 -13 -9 -24 -17 -19 -14 -19 -14 -6 3 7 9 18 17 24 17 6 0 8 -1 6 -3z m79
-134 c-10 -2 -26 -2 -35 0 -10 3 -2 5 17 5 19 0 27 -2 18 -5z m349 -55 c-3 -8
-6 -5 -6 6 -1 11 2 17 5 13 3 -3 4 -12 1 -19z m10 -40 c-3 -8 -6 -5 -6 6 -1
11 2 17 5 13 3 -3 4 -12 1 -19z m13 -327 l0 -300 -105 -3 -105 -3 2 125 2 125
3 -117 4 -118 94 0 95 0 0 295 c0 162 2 295 5 295 3 0 5 -135 5 -299z m-203
247 c-3 -8 -6 -5 -6 6 -1 11 2 17 5 13 3 -3 4 -12 1 -19z m0 -220 c-2 -29 -3
-8 -3 47 0 55 1 79 3 53 2 -26 2 -71 0 -100z"/>
<path d="M1105 3743 c3 -10 35 -101 70 -203 34 -102 124 -360 199 -575 75
-214 136 -396 136 -402 0 -10 37 -13 154 -13 l154 0 130 388 c72 213 164 485
206 605 l75 217 -130 0 c-92 0 -129 -3 -129 -12 0 -6 -50 -172 -110 -367 -61
-196 -126 -406 -145 -468 -19 -61 -35 -118 -35 -127 0 -9 -3 -16 -8 -16 -7 0
-43 115 -225 715 l-82 270 -134 3 c-124 2 -133 1 -126 -15z m269 -63 c5 -23 4
-30 -2 -20 -5 8 -12 33 -16 55 -7 48 8 19 18 -35z m-101 53 c-7 -2 -19 -2 -25
0 -7 3 -2 5 12 5 14 0 19 -2 13 -5z m917 -50 c-11 -17 -11 -17 -6 0 3 10 6 24
7 30 0 9 2 9 5 0 3 -7 0 -20 -6 -30z m-220 -10 c-11 -17 -11 -17 -6 0 3 10 6
24 7 30 0 9 2 9 5 0 3 -7 0 -20 -6 -30z m-811 -28 c0 -5 -4 -3 -9 5 -5 8 -9
22 -9 30 0 16 17 -16 18 -35z m798 -17 c-3 -8 -6 -5 -6 6 -1 11 2 17 5 13 3
-3 4 -12 1 -19z m-539 -98 c0 -8 -8 8 -18 35 -10 28 -18 57 -18 65 0 8 8 -7
18 -35 10 -27 18 -57 18 -65z m-220 8 c6 -18 13 -42 17 -53 4 -12 1 -10 -8 5
-15 27 -30 80 -23 80 3 0 9 -15 14 -32z m926 -42 c-9 -26 -18 -45 -20 -43 -2
2 3 25 12 51 9 26 18 45 20 43 2 -2 -3 -25 -12 -51z m-210 -10 c-3 -15 -8 -25
-11 -23 -2 3 -1 17 3 31 3 15 8 25 11 23 2 -3 1 -17 -3 -31z m-660 -110 c15
-43 25 -80 22 -83 -4 -4 -56 144 -56 161 0 17 7 1 34 -78z m843 42 c-3 -8 -6
-5 -6 6 -1 11 2 17 5 13 3 -3 4 -12 1 -19z m-589 -188 c0 -8 -13 26 -29 75
-16 50 -28 95 -28 100 1 14 57 -157 57 -175z m531 11 c-6 -18 -13 -30 -15 -28
-2 2 1 18 7 36 6 18 13 30 15 28 2 -2 -1 -18 -7 -36z m-205 -15 c-3 -15 -8
-25 -11 -23 -2 3 -1 17 3 31 3 15 8 25 11 23 2 -3 1 -17 -3 -31z m-495 -96 c0
-17 -23 34 -33 71 -3 13 3 6 13 -16 11 -22 20 -47 20 -55z m671 25 c-16 -47
-23 -40 -8 8 6 20 13 35 16 33 2 -3 -1 -21 -8 -41z m-199 4 c-5 -13 -10 -19
-10 -12 -1 15 10 45 15 40 3 -2 0 -15 -5 -28z m-261 -50 c12 -39 20 -73 17
-75 -2 -2 -11 22 -21 54 -26 87 -28 92 -22 92 3 0 15 -32 26 -71z m431 -30
c-5 -13 -10 -19 -10 -12 -1 15 10 45 15 40 3 -2 0 -15 -5 -28z m-21 -66 c-11
-17 -11 -17 -6 0 3 10 6 24 7 30 0 9 2 9 5 0 3 -7 0 -20 -6 -30z m-200 -20
c-11 -17 -11 -17 -6 0 3 10 6 24 7 30 0 9 2 9 5 0 3 -7 0 -20 -6 -30z m-370
-8 c0 -5 -5 -3 -10 5 -5 8 -10 20 -10 25 0 6 5 3 10 -5 5 -8 10 -19 10 -25z
m208 -45 c0 -8 -6 1 -13 20 -7 19 -13 42 -13 50 0 8 6 -1 13 -20 7 -19 13 -42
13 -50z m343 19 c-5 -13 -10 -19 -10 -12 -1 15 10 45 15 40 3 -2 0 -15 -5 -28z
m-194 -11 c-3 -8 -6 -5 -6 6 -1 11 2 17 5 13 3 -3 4 -12 1 -19z m-328 -53 c0
-5 -4 -3 -9 5 -5 8 -9 22 -9 30 0 16 17 -16 18 -35z m200 -25 c0 -9 -4 -8 -9
5 -5 11 -9 27 -9 35 0 9 4 8 9 -5 5 -11 9 -27 9 -35z m292 3 c-12 -20 -14 -14
-5 12 4 9 9 14 11 11 3 -2 0 -13 -6 -23z m-472 -33 c0 -10 -3 -8 -9 5 -12 27
-12 43 0 25 5 -8 9 -22 9 -30z m278 8 c-3 -8 -6 -5 -6 6 -1 11 2 17 5 13 3 -3
4 -12 1 -19z m180 -20 c-3 -8 -6 -5 -6 6 -1 11 2 17 5 13 3 -3 4 -12 1 -19z
m-195 -30 c-8 -8 -9 -4 -5 13 4 13 8 18 11 10 2 -7 -1 -18 -6 -23z m-224 -73
c0 -5 -6 4 -13 20 -8 17 -14 37 -14 45 0 8 7 -1 14 -20 7 -19 13 -39 13 -45z
m383 -6 c-5 -13 -10 -19 -10 -12 -1 15 10 45 15 40 3 -2 0 -15 -5 -28z m-30
-86 c-12 -20 -14 -14 -5 12 4 9 9 14 11 11 3 -2 0 -13 -6 -23z m-19 -55 c-8
-8 -9 -4 -5 13 4 13 8 18 11 10 2 -7 -1 -18 -6 -23z m-144 -5 c-26 -2 -71 -2
-100 0 -29 2 -8 3 47 3 55 0 79 -1 53 -3z"/>
<path d="M6940 3565 l0 -115 -70 0 -71 0 3 -87 3 -88 68 3 67 2 0 -248 c0
-137 5 -274 10 -303 13 -69 54 -127 110 -159 41 -23 55 -25 167 -25 67 1 125
3 128 7 8 8 -17 188 -27 188 -4 0 -8 -3 -8 -7 0 -5 -27 -8 -59 -8 -33 0 -59 2
-58 5 1 3 -7 18 -18 35 -19 27 -20 47 -20 269 l0 240 100 0 100 1 0 87 0 87
-100 3 -100 3 -3 113 -3 112 -109 0 -110 0 0 -115z m17 38 c-2 -16 -4 -5 -4
22 0 28 2 40 4 28 2 -13 2 -35 0 -50z m193 57 c0 -5 -8 -10 -17 -10 -15 0 -16
2 -3 10 19 12 20 12 20 0z m-193 -137 c-3 -10 -5 -2 -5 17 0 19 2 27 5 18 2
-10 2 -26 0 -35z m311 -90 c-10 -2 -28 -2 -40 0 -13 2 -5 4 17 4 22 1 32 -1
23 -4z m82 -68 l0 -75 -77 2 -78 2 73 3 72 4 0 64 c0 58 -2 64 -22 68 -20 4
-19 4 5 6 l27 1 0 -75z m-443 -72 c-20 -2 -52 -2 -70 0 -17 2 0 4 38 4 39 0
53 -2 32 -4z m50 -85 c-2 -13 -4 -5 -4 17 -1 22 1 32 4 23 2 -10 2 -28 0 -40z
m0 -95 c-3 -10 -5 -4 -5 12 0 17 2 24 5 18 2 -7 2 -21 0 -30z m0 -75 c-2 -13
-4 -5 -4 17 -1 22 1 32 4 23 2 -10 2 -28 0 -40z m0 -65 c-3 -10 -5 -4 -5 12 0
17 2 24 5 18 2 -7 2 -21 0 -30z m0 -170 c-3 -10 -5 -2 -5 17 0 19 2 27 5 18 2
-10 2 -26 0 -35z m35 -138 c9 -20 9 -20 -6 -1 -9 11 -16 27 -15 35 0 14 1 14
6 1 3 -8 10 -24 15 -35z m345 -47 c-3 -7 -5 -2 -5 12 0 14 2 19 5 13 2 -7 2
-19 0 -25z m-312 2 c10 -11 16 -20 13 -20 -3 0 -13 9 -23 20 -10 11 -16 20
-13 20 3 0 13 -9 23 -20z m317 -52 c-7 -7 -12 -8 -12 -2 0 14 12 26 19 19 2
-3 -1 -11 -7 -17z m-105 -14 c-3 -3 -12 -4 -19 -1 -8 3 -5 6 6 6 11 1 17 -2
13 -5z"/>
<path d="M3402 3455 c-82 -23 -182 -82 -182 -108 0 -6 10 -1 23 10 21 19 87
63 77 51 -15 -18 -99 -76 -103 -71 -8 8 -44 -68 -52 -110 l-7 -37 106 0 106 0
20 41 c26 49 67 69 145 69 96 0 155 -48 155 -126 0 -31 -5 -46 -17 -52 -10 -5
-70 -17 -133 -26 -63 -9 -140 -22 -170 -28 -62 -12 -154 -54 -145 -67 2 -5 -3
-15 -13 -22 -15 -13 -16 -12 -3 4 9 11 10 17 2 17 -17 0 -70 -79 -82 -124 -15
-55 -6 -143 20 -193 26 -53 91 -108 149 -127 27 -10 80 -16 128 -16 100 0 177
25 230 76 20 19 38 34 39 34 1 0 5 -22 9 -50 l7 -50 110 0 c102 0 111 1 104
18 -4 9 -9 157 -12 327 -5 329 -11 380 -55 445 -28 42 -86 81 -153 105 -69 24
-234 29 -303 10z m111 -2 c-7 -2 -19 -2 -25 0 -7 3 -2 5 12 5 14 0 19 -2 13
-5z m-76 -9 c-3 -3 -12 -4 -19 -1 -8 3 -5 6 6 6 11 1 17 -2 13 -5z m216 -1
c-7 -2 -19 -2 -25 0 -7 3 -2 5 12 5 14 0 19 -2 13 -5z m57 -13 c8 -5 11 -10 5
-10 -5 0 -17 5 -25 10 -8 5 -10 10 -5 10 6 0 17 -5 25 -10z m-350 -10 c-8 -5
-19 -10 -25 -10 -5 0 -3 5 5 10 8 5 20 10 25 10 6 0 3 -5 -5 -10z m408 -14
c15 -8 36 -25 47 -37 l20 -24 -25 21 c-14 12 -38 29 -55 37 -16 9 -26 16 -22
17 4 0 20 -6 35 -14z m118 -154 c11 -34 14 -111 12 -321 l-2 -276 -6 295 c-5
264 -7 299 -25 335 -28 58 -29 63 -10 36 10 -12 24 -44 31 -69z m-298 61 c-10
-2 -28 -2 -40 0 -13 2 -5 4 17 4 22 1 32 -1 23 -4z m47 -13 c3 -6 -1 -7 -9 -4
-18 7 -21 14 -7 14 6 0 13 -4 16 -10z m-441 -49 c-4 -17 -9 -30 -11 -27 -3 2
-2 19 2 36 9 41 17 33 9 -9z m515 -54 c-1 -32 -1 -32 -9 5 -4 21 -13 46 -21
56 -8 10 -4 7 9 -6 14 -15 22 -34 21 -55z m-332 33 c-7 -17 -13 -26 -15 -21
-3 10 15 51 22 51 3 0 -1 -14 -7 -30z m276 -137 c-7 -2 -19 -2 -25 0 -7 3 -2
5 12 5 14 0 19 -2 13 -5z m-195 -30 c-10 -2 -26 -2 -35 0 -10 3 -2 5 17 5 19
0 27 -2 18 -5z m-61 -9 c-3 -3 -12 -4 -19 -1 -8 3 -5 6 6 6 11 1 17 -2 13 -5z
m-62 -14 c-27 -12 -43 -12 -25 0 8 5 22 9 30 9 10 0 8 -3 -5 -9z m-46 -14 c-2
-2 -15 -9 -29 -15 -24 -11 -24 -11 -6 3 16 13 49 24 35 12z m344 -53 c-7 -2
-19 -2 -25 0 -7 3 -2 5 12 5 14 0 19 -2 13 -5z m57 -76 c0 -60 -4 -78 -25
-109 -26 -38 -86 -72 -147 -83 -118 -22 -204 63 -164 159 8 19 11 37 8 41 -4
4 -2 5 3 4 6 -2 30 5 55 14 36 14 178 39 258 46 8 1 12 -20 12 -72z m-520 28
c-12 -19 -25 -62 -30 -97 l-9 -63 3 62 c3 42 11 74 26 98 12 19 24 35 27 35 2
0 -5 -16 -17 -35z m537 -57 c-2 -18 -4 -4 -4 32 0 36 2 50 4 33 2 -18 2 -48 0
-65z m-371 -25 c-6 -26 -12 -38 -14 -27 -3 19 13 74 21 74 2 0 -1 -21 -7 -47z
m350 -61 c-17 -16 -18 -16 -5 5 7 12 15 20 18 17 3 -2 -3 -12 -13 -22z m-336
-37 c0 -5 -5 -3 -10 5 -5 8 -10 20 -10 25 0 6 5 3 10 -5 5 -8 10 -19 10 -25z
m-186 -51 c3 -8 2 -12 -4 -9 -6 3 -10 10 -10 16 0 14 7 11 14 -7z m393 0 c-3
-3 -12 -4 -19 -1 -8 3 -5 6 6 6 11 1 17 -2 13 -5z m-59 -11 c-10 -2 -26 -2
-35 0 -10 3 -2 5 17 5 19 0 27 -2 18 -5z m-272 -65 l19 -23 -25 20 c-14 11
-27 21 -29 22 -2 2 0 3 6 3 5 0 18 -10 29 -22z m434 18 c0 -2 -8 -10 -17 -17
-16 -13 -17 -12 -4 4 13 16 21 21 21 13z m57 -18 c-3 -8 -6 -5 -6 6 -1 11 2
17 5 13 3 -3 4 -12 1 -19z m193 -28 c0 -17 -6 -20 -42 -18 l-43 1 38 4 c24 3
37 9 37 19 0 8 2 14 5 14 3 0 5 -9 5 -20z m-130 -16 c0 -2 -13 -4 -30 -4 -16
0 -30 4 -30 8 0 5 14 7 30 4 17 -2 30 -6 30 -8z"/>
<path d="M5220 3455 c-110 -31 -199 -107 -220 -187 -6 -24 -13 -51 -16 -60 -4
-15 7 -17 102 -20 106 -3 107 -3 116 22 5 14 21 37 35 52 14 14 24 30 23 34
-1 5 4 10 12 12 10 3 11 2 0 -6 -8 -5 17 -7 66 -4 60 3 86 1 111 -12 65 -34
94 -130 49 -160 -13 -8 -86 -24 -163 -35 -168 -24 -225 -41 -289 -88 -66 -47
-91 -104 -90 -203 0 -90 22 -140 85 -194 61 -52 121 -69 233 -64 80 3 100 7
152 34 32 17 58 36 56 43 -1 7 2 10 7 7 5 -3 15 1 22 10 12 14 14 14 20 -3 4
-10 8 -33 8 -50 l1 -33 108 0 107 0 -2 267 c-4 376 -8 421 -47 497 -26 50 -42
67 -86 94 -76 45 -109 53 -235 58 -79 3 -126 0 -165 -11z m53 -12 c-7 -2 -19
-2 -25 0 -7 3 -2 5 12 5 14 0 19 -2 13 -5z m220 0 c-7 -2 -19 -2 -25 0 -7 3
-2 5 12 5 14 0 19 -2 13 -5z m94 -30 c10 -10 14 -15 8 -11 -6 4 -22 12 -36 17
-15 6 -18 10 -8 10 9 1 25 -7 36 -16z m-472 -28 c-16 -13 -34 -24 -39 -25 -6
0 5 11 24 25 44 32 54 32 15 0z m541 -22 c-7 -7 -26 7 -26 19 0 6 6 6 15 -2 9
-7 13 -15 11 -17z m-586 -16 c0 -2 -10 -12 -22 -23 l-23 -19 19 23 c18 21 26
27 26 19z m635 -47 c7 -14 16 -44 19 -65 l6 -40 -14 42 c-7 24 -24 59 -36 80
-15 26 -17 33 -5 23 9 -7 22 -25 30 -40z m-378 14 c-3 -3 -12 -4 -19 -1 -8 3
-5 6 6 6 11 1 17 -2 13 -5z m76 -1 c-7 -2 -19 -2 -25 0 -7 3 -2 5 12 5 14 0
19 -2 13 -5z m62 -13 c3 -6 -1 -7 -9 -4 -18 7 -21 14 -7 14 6 0 13 -4 16 -10z
m-444 -31 c-5 -13 -10 -19 -10 -12 -1 15 10 45 15 40 3 -2 0 -15 -5 -28z m509
-44 c0 -5 -5 -3 -10 5 -5 8 -10 20 -10 25 0 6 5 3 10 -5 5 -8 10 -19 10 -25z
m-523 -7 c-3 -8 -6 -5 -6 6 -1 11 2 17 5 13 3 -3 4 -12 1 -19z m530 -50 c-3
-8 -6 -5 -6 6 -1 11 2 17 5 13 3 -3 4 -12 1 -19z m200 -40 c-3 -7 -5 -2 -5 12
0 14 2 19 5 13 2 -7 2 -19 0 -25z m-270 -34 c-3 -3 -12 -4 -19 -1 -8 3 -5 6 6
6 11 1 17 -2 13 -5z m-54 -11 c-7 -2 -19 -2 -25 0 -7 3 -2 5 12 5 14 0 19 -2
13 -5z m-130 -20 c-7 -2 -21 -2 -30 0 -10 3 -4 5 12 5 17 0 24 -2 18 -5z m-56
-9 c-3 -3 -12 -4 -19 -1 -8 3 -5 6 6 6 11 1 17 -2 13 -5z m-50 -10 c-3 -3 -12
-4 -19 -1 -8 3 -5 6 6 6 11 1 17 -2 13 -5z m320 -60 c-3 -3 -12 -4 -19 -1 -8
3 -5 6 6 6 11 1 17 -2 13 -5z m-482 -40 c-14 -20 -25 -41 -25 -47 0 -6 -3 -8
-6 -5 -7 7 12 45 34 71 25 28 23 20 -3 -19z m505 -44 c0 -71 -14 -114 -44
-139 -8 -7 -12 -19 -9 -27 3 -8 0 -14 -7 -14 -6 0 -8 5 -4 12 5 8 2 9 -12 3
-92 -39 -143 -44 -197 -21 -43 18 -67 46 -73 88 -14 82 48 127 201 148 50 6
97 13 105 15 39 7 40 6 40 -65z m207 28 c-3 -7 -5 -2 -5 12 0 14 2 19 5 13 2
-7 2 -19 0 -25z m0 -40 c-3 -8 -6 -5 -6 6 -1 11 2 17 5 13 3 -3 4 -12 1 -19z
m-760 -100 c-2 -13 -4 -5 -4 17 -1 22 1 32 4 23 2 -10 2 -28 0 -40z m228 -58
c10 -11 16 -20 13 -20 -3 0 -13 9 -23 20 -10 11 -16 20 -13 20 3 0 13 -9 23
-20z m-201 -36 c3 -8 2 -12 -4 -9 -6 3 -10 10 -10 16 0 14 7 11 14 -7z m403 0
c-3 -3 -12 -4 -19 -1 -8 3 -5 6 6 6 11 1 17 -2 13 -5z m-64 -11 c-7 -2 -21 -2
-30 0 -10 3 -4 5 12 5 17 0 24 -2 18 -5z m301 -106 l71 -3 -77 -2 c-68 -2 -78
0 -78 16 0 9 -2 26 -3 37 -2 11 1 6 6 -12 10 -32 11 -32 81 -36z m-594 53 c0
-5 -2 -10 -4 -10 -3 0 -8 5 -11 10 -3 6 -1 10 4 10 6 0 11 -4 11 -10z m697
-22 c-3 -7 -5 -2 -5 12 0 14 2 19 5 13 2 -7 2 -19 0 -25z m-607 -31 c13 -5 13
-6 -1 -6 -8 -1 -24 6 -35 15 -19 15 -19 15 1 6 11 -5 27 -12 35 -15z m286 8
c-11 -8 -25 -15 -30 -15 -6 1 0 7 14 15 32 19 40 18 16 0z"/>
<path d="M6151 3454 c-168 -45 -253 -167 -221 -318 9 -45 21 -67 53 -100 51
-52 115 -78 281 -112 167 -35 196 -52 196 -117 0 -69 -60 -107 -169 -107 -46
0 -122 28 -135 49 -4 6 -11 9 -16 6 -5 -3 -12 0 -16 6 -5 8 -3 9 6 4 10 -6 12
-4 7 9 -4 10 -7 21 -7 24 0 4 -4 2 -8 -4 -5 -9 -11 -8 -20 2 -10 12 -10 14 3
14 8 0 15 3 15 8 0 4 -47 6 -105 4 -118 -4 -116 -1 -94 -87 16 -64 74 -126
151 -160 58 -27 75 -29 202 -33 88 -3 136 -1 133 5 -4 6 4 8 18 6 41 -8 205
79 205 109 0 6 -7 5 -17 -3 -16 -11 -16 -11 -5 1 7 8 18 15 24 15 21 0 51 76
55 143 4 59 2 73 -24 121 -15 30 -35 57 -43 59 -13 5 -13 3 0 -14 14 -17 14
-18 -2 -6 -10 8 -16 19 -15 25 5 25 -88 60 -249 92 -123 25 -172 39 -188 54
-13 12 -24 19 -27 17 -2 -2 -4 15 -4 39 0 24 3 41 7 39 4 -2 10 1 13 7 4 6 21
19 39 30 33 20 20 27 -17 8 -19 -10 -20 -9 -9 2 10 10 37 13 105 11 107 -4
142 -19 172 -75 l20 -37 108 0 c122 0 119 -3 87 87 -22 63 -66 115 -122 144
-92 47 -277 63 -387 33z m264 -4 c17 -4 -5 -5 -50 -2 -44 2 -82 6 -84 8 -8 7
104 2 134 -6z m-212 -7 c-7 -2 -19 -2 -25 0 -7 3 -2 5 12 5 14 0 19 -2 13 -5z
m-123 -37 c0 -2 -7 -7 -16 -10 -8 -3 -12 -2 -9 4 6 10 25 14 25 6z m515 -36
c11 -18 -9 -10 -40 16 l-30 26 32 -16 c17 -9 35 -20 38 -26z m-555 16 c0 -2
-8 -10 -17 -17 -16 -13 -17 -12 -4 4 13 16 21 21 21 13z m590 -67 c15 -28 5
-23 -15 7 -9 15 -12 23 -6 20 6 -4 16 -16 21 -27z m-317 4 c-7 -2 -19 -2 -25
0 -7 3 -2 5 12 5 14 0 19 -2 13 -5z m67 -13 c11 -8 7 -9 -15 -4 -37 8 -45 14
-19 14 10 0 26 -5 34 -10z m-433 -72 c-3 -7 -5 -2 -5 12 0 14 2 19 5 13 2 -7
2 -19 0 -25z m717 -10 c3 -16 2 -28 -3 -28 -5 0 -11 16 -13 35 -5 39 6 34 16
-7z m-537 -35 c-3 -10 -5 -4 -5 12 0 17 2 24 5 18 2 -7 2 -21 0 -30z m347 21
c3 -8 2 -12 -4 -9 -6 3 -10 10 -10 16 0 14 7 11 14 -7z m-506 -131 c7 -12 29
-36 49 -53 21 -18 29 -27 18 -22 -46 24 -96 94 -94 134 1 19 2 18 8 -7 4 -16
13 -40 19 -52z m231 30 c2 -2 0 -3 -6 -3 -6 0 -21 9 -34 21 l-24 20 30 -17
c17 -10 32 -19 34 -21z m74 -20 c-7 -2 -19 -2 -25 0 -7 3 -2 5 12 5 14 0 19
-2 13 -5z m135 -18 c12 -10 -21 -10 -68 1 l-55 13 60 -6 c33 -3 61 -7 63 -8z
m112 -32 c15 -9 17 -12 5 -7 -11 3 -40 13 -65 20 l-45 14 40 -6 c22 -3 51 -12
65 -21z m61 -30 c13 -17 13 -17 -6 -3 -11 8 -22 16 -24 17 -2 2 0 3 6 3 6 0
17 -8 24 -17z m-490 -31 c-7 -2 -18 1 -23 6 -8 8 -4 9 13 5 13 -4 18 -8 10
-11z m76 -18 c-3 -3 -12 -4 -19 -1 -8 3 -5 6 6 6 11 1 17 -2 13 -5z m40 -10
c-3 -3 -12 -4 -19 -1 -8 3 -5 6 6 6 11 1 17 -2 13 -5z m50 -10 c-3 -3 -12 -4
-19 -1 -8 3 -5 6 6 6 11 1 17 -2 13 -5z m40 -10 c-3 -3 -12 -4 -19 -1 -8 3 -5
6 6 6 11 1 17 -2 13 -5z m381 -94 l-1 -35 -6 40 c-4 22 -10 51 -14 65 -5 20
-4 19 8 -5 8 -16 14 -46 13 -65z m-262 64 c19 -15 19 -15 -1 -6 -11 5 -27 12
-35 15 -13 5 -13 6 1 6 8 1 24 -6 35 -15z m66 -126 c-7 -7 -12 -8 -12 -2 0 14
12 26 19 19 2 -3 -1 -11 -7 -17z m189 -9 c-5 -13 -10 -19 -10 -12 -1 15 10 45
15 40 3 -2 0 -15 -5 -28z m-11 -37 c0 -5 -7 -17 -15 -28 -14 -18 -14 -17 -4 9
12 27 19 34 19 19z m-591 -129 c35 -18 59 -33 52 -33 -44 0 -181 107 -181 141
0 6 15 -9 33 -33 21 -28 54 -54 96 -75z m146 97 c13 -6 15 -9 5 -9 -8 0 -22 4
-30 9 -18 12 -2 12 25 0z m191 -2 c-11 -6 -51 -12 -90 -14 l-71 -3 73 9 c40 4
76 11 79 14 4 3 11 6 17 6 6 0 2 -6 -8 -12z m184 -63 c0 -2 -10 -10 -22 -16
-21 -11 -22 -11 -9 4 13 16 31 23 31 12z m-64 -40 c-11 -8 -25 -15 -30 -15 -6
1 0 7 14 15 32 19 40 18 16 0z m-331 -35 c4 -7 -3 -8 -22 -4 -38 9 -42 14 -10
14 14 0 29 -5 32 -10z m188 -7 c-7 -2 -19 -2 -25 0 -7 3 -2 5 12 5 14 0 19 -2
13 -5z"/>
<path d="M8727 3459 c-126 -30 -224 -124 -240 -231 l-6 -38 104 0 105 0 14 35
c22 51 68 75 144 75 109 0 162 -40 162 -124 0 -51 -22 -61 -191 -85 -158 -22
-205 -36 -267 -74 -54 -35 -79 -70 -98 -135 -31 -104 -2 -208 77 -275 55 -48
116 -67 209 -67 98 0 162 20 229 70 29 23 55 40 56 38 2 -2 5 -25 6 -51 l3
-47 105 0 106 0 -2 132 c-2 73 -4 225 -6 338 -2 188 -5 209 -25 254 -47 103
-111 157 -221 182 -63 15 -206 17 -264 3z m58 -9 c-11 -5 -29 -8 -40 -8 -16 0
-15 2 5 8 34 11 60 11 35 0z m143 3 c-10 -2 -26 -2 -35 0 -10 3 -2 5 17 5 19
0 27 -2 18 -5z m59 -9 c-3 -3 -12 -4 -19 -1 -8 3 -5 6 6 6 11 1 17 -2 13 -5z
m-307 -18 c0 -2 -7 -7 -16 -10 -8 -3 -12 -2 -9 4 6 10 25 14 25 6z m380 -6 c8
-5 11 -10 5 -10 -5 0 -17 5 -25 10 -8 5 -10 10 -5 10 6 0 17 -5 25 -10z m71
-46 c9 -11 2 -9 -18 6 -18 13 -33 25 -33 27 0 8 38 -17 51 -33z m-516 16 c-3
-5 -16 -15 -28 -21 -21 -10 -21 -9 2 10 25 23 36 27 26 11z m-65 -60 c-6 -11
-13 -20 -16 -20 -2 0 0 9 6 20 6 11 13 20 16 20 2 0 0 -9 -6 -20z m640 -33 c0
-12 0 -11 -24 28 l-17 30 20 -24 c12 -13 21 -28 21 -34z m-383 17 c-3 -3 -12
-4 -19 -1 -8 3 -5 6 6 6 11 1 17 -2 13 -5z m412 -118 c1 -42 -5 -29 -12 24 -4
30 -3 38 3 25 5 -11 9 -33 9 -49z m-717 12 c-6 -6 -7 0 -4 19 5 21 7 23 10 9
2 -10 0 -22 -6 -28z m525 -20 c-3 -7 -5 -2 -5 12 0 14 2 19 5 13 2 -7 2 -19 0
-25z m0 -40 c-3 -8 -6 -5 -6 6 -1 11 2 17 5 13 3 -3 4 -12 1 -19z m200 -90
c-2 -18 -4 -4 -4 32 0 36 2 50 4 33 2 -18 2 -48 0 -65z m-394 15 c-7 -2 -19
-2 -25 0 -7 3 -2 5 12 5 14 0 19 -2 13 -5z m-70 -10 c-7 -2 -19 -2 -25 0 -7 3
-2 5 12 5 14 0 19 -2 13 -5z m-223 -76 c0 -2 -12 -14 -27 -28 l-28 -24 24 28
c23 25 31 32 31 24z m398 -14 c-10 -2 -26 -2 -35 0 -10 3 -2 5 17 5 19 0 27
-2 18 -5z m72 -75 c-3 -40 -11 -83 -18 -95 -17 -30 -15 -38 6 -22 9 7 4 -1
-12 -19 -30 -32 -49 -45 -26 -17 17 21 10 19 -42 -10 -59 -33 -144 -43 -186
-21 -36 18 -46 20 -37 6 4 -6 -1 -7 -11 -3 -11 4 -13 8 -6 11 9 3 8 11 -3 32
-34 66 -5 137 67 164 39 15 187 41 248 45 25 1 25 1 20 -71z m-529 1 c-5 -13
-10 -19 -10 -12 -1 15 10 45 15 40 3 -2 0 -15 -5 -28z m746 -11 c-3 -7 -5 -2
-5 12 0 14 2 19 5 13 2 -7 2 -19 0 -25z m-580 -75 c-3 -10 -5 -4 -5 12 0 17 2
24 5 18 2 -7 2 -21 0 -30z m-190 -25 c-2 -13 -4 -5 -4 17 -1 22 1 32 4 23 2
-10 2 -28 0 -40z m770 -111 c-2 -23 -3 -1 -3 48 0 50 1 68 3 42 2 -26 2 -67 0
-90z m-563 77 c3 -8 2 -12 -4 -9 -6 3 -10 10 -10 16 0 14 7 11 14 -7z m-185
-49 c0 -5 -4 -3 -9 5 -5 8 -9 22 -9 30 0 16 17 -16 18 -35z m447 10 c-11 -8
-25 -15 -30 -15 -6 1 0 7 14 15 32 19 40 18 16 0z m-53 -22 c-7 -2 -19 -2 -25
0 -7 3 -2 5 12 5 14 0 19 -2 13 -5z m-90 -10 c-7 -2 -19 -2 -25 0 -7 3 -2 5
12 5 14 0 19 -2 13 -5z m-237 -65 l19 -21 -27 18 c-29 18 -34 25 -20 25 5 0
17 -10 28 -22z m360 -33 c-11 -8 -27 -15 -35 -15 -9 1 -2 7 14 15 39 18 44 18
21 0z m292 -12 c-26 -2 -71 -2 -100 0 -29 2 -8 3 47 3 55 0 79 -1 53 -3z"/>
<path d="M2220 3448 c0 -3 72 -207 160 -453 96 -269 160 -461 160 -483 0 -96
-100 -158 -196 -122 -15 6 -29 9 -31 6 -11 -10 -42 -171 -35 -178 15 -15 127
-30 185 -24 109 11 197 68 252 162 13 22 63 152 110 288 96 278 270 773 279
796 5 13 -11 15 -116 13 l-121 -2 -94 -308 c-51 -169 -93 -316 -93 -325 0 -54
-23 -2 -83 195 -38 122 -84 272 -103 332 l-35 110 -120 0 c-65 0 -119 -3 -119
-7z m30 -18 c0 -5 -2 -10 -4 -10 -3 0 -8 5 -11 10 -3 6 -1 10 4 10 6 0 11 -4
11 -10z m138 3 c-10 -2 -26 -2 -35 0 -10 3 -2 5 17 5 19 0 27 -2 18 -5z m693
-20 c-12 -20 -14 -14 -5 12 4 9 9 14 11 11 3 -2 0 -13 -6 -23z m-624 -5 c-3
-8 -6 -5 -6 6 -1 11 2 17 5 13 3 -3 4 -12 1 -19z m-138 -192 c0 -6 -16 31 -35
83 -18 51 -34 99 -33 105 0 6 16 -31 35 -83 18 -51 34 -99 33 -105z m742 143
c-5 -13 -10 -19 -10 -12 -1 15 10 45 15 40 3 -2 0 -15 -5 -28z m-204 -11 c-3
-8 -6 -5 -6 6 -1 11 2 17 5 13 3 -3 4 -12 1 -19z m-327 -167 c-1 -9 -12 18
-25 59 -14 41 -24 80 -24 85 1 16 49 -127 49 -144z m311 118 c-5 -13 -10 -19
-10 -12 -1 15 10 45 15 40 3 -2 0 -15 -5 -28z m200 4 c-12 -20 -14 -14 -5 12
4 9 9 14 11 11 3 -2 0 -13 -6 -23z m-20 -54 c-5 -13 -10 -19 -10 -12 -1 15 10
45 15 40 3 -2 0 -15 -5 -28z m-204 -31 c-3 -8 -6 -5 -6 6 -1 11 2 17 5 13 3
-3 4 -12 1 -19z m-463 -88 c5 -17 4 -20 -2 -10 -5 8 -13 26 -16 40 -5 17 -4
20 2 10 5 -8 13 -26 16 -40z m440 6 c-3 -15 -8 -25 -11 -23 -2 3 -1 17 3 31 3
15 8 25 11 23 2 -3 1 -17 -3 -31z m-245 -26 c0 -9 -4 -8 -9 5 -5 11 -9 27 -9
35 0 9 4 8 9 -5 5 -11 9 -27 9 -35z m425 -4 c-9 -26 -18 -45 -20 -43 -2 2 3
25 12 51 9 26 18 45 20 43 2 -2 -3 -25 -12 -51z m-207 -58 c-3 -8 -6 -5 -6 6
-1 11 2 17 5 13 3 -3 4 -12 1 -19z m-168 -88 c0 -10 -3 -8 -9 5 -12 27 -12 43
0 25 5 -8 9 -22 9 -30z m147 4 c-4 -14 -9 -24 -12 -21 -3 2 -2 17 2 31 3 15 9
25 11 22 3 -3 2 -17 -1 -32z m-326 -19 c0 -5 -5 -3 -10 5 -5 8 -10 20 -10 25
0 6 5 3 10 -5 5 -8 10 -19 10 -25z m199 -55 c0 -9 -4 -8 -9 5 -5 11 -9 27 -9
35 0 9 4 8 9 -5 5 -11 9 -27 9 -35z m281 5 c-16 -47 -23 -40 -8 8 6 20 13 35
16 33 2 -3 -1 -21 -8 -41z m-460 0 c0 -5 -5 -3 -10 5 -5 8 -10 20 -10 25 0 6
5 3 10 -5 5 -8 10 -19 10 -25z m274 -34 c-10 -33 -19 -59 -21 -57 -3 2 3 32
13 65 9 34 19 60 21 58 2 -3 -4 -32 -13 -66z m-266 -6 c-3 -3 -9 2 -12 12 -6
14 -5 15 5 6 7 -7 10 -15 7 -18z m32 -75 c5 -19 6 -29 1 -24 -10 10 -26 72
-17 63 4 -4 11 -21 16 -39z m380 3 c-11 -17 -11 -17 -6 0 3 10 6 24 7 30 0 9
2 9 5 0 3 -7 0 -20 -6 -30z m-342 -118 c0 -5 -6 4 -13 20 -8 17 -14 37 -14 45
0 8 7 -1 14 -20 7 -19 13 -39 13 -45z m293 -18 c-10 -9 -11 -8 -5 6 3 10 9 15
12 12 3 -3 0 -11 -7 -18z m-30 -88 c-5 -13 -10 -19 -10 -12 -1 15 10 45 15 40
3 -2 0 -15 -5 -28z m-30 -86 c-12 -20 -14 -14 -5 12 4 9 9 14 11 11 3 -2 0
-13 -6 -23z m-191 -1 c0 -5 -7 -17 -15 -28 -14 -18 -14 -17 -4 9 12 27 19 34
19 19z m146 -110 c-8 -16 -22 -34 -31 -42 -9 -7 -4 5 11 28 32 48 41 55 20 14z
m-371 10 c-15 -10 -45 -142 -32 -142 6 0 8 -3 4 -6 -25 -26 -21 45 9 144 2 6
9 12 16 12 8 0 9 -3 3 -8z m88 -9 c-13 -2 -35 -2 -50 0 -16 2 -5 4 22 4 28 0
40 -2 28 -4z m217 -84 c-27 -21 -71 -47 -55 -32 19 18 68 53 74 53 3 0 -5 -9
-19 -21z m-85 -49 c-3 -5 -12 -10 -18 -10 -7 0 -6 4 3 10 19 12 23 12 15 0z
m-86 -26 c8 -7 -94 -2 -124 6 -18 5 1 6 45 3 41 -3 77 -7 79 -9z"/>
<path d="M3990 3449 c0 -4 11 -35 24 -70 13 -35 83 -229 155 -430 72 -201 133
-373 137 -382 5 -15 24 -17 139 -17 l133 0 18 53 c9 28 79 227 156 442 76 214
138 396 138 404 0 8 -6 11 -16 7 -9 -3 -61 -6 -117 -6 l-102 0 -98 -323 c-54
-177 -101 -329 -104 -337 -5 -14 -66 166 -159 469 -28 91 -40 118 -46 105 -5
-13 -6 -9 -3 12 3 16 2 40 -3 53 -7 21 -14 22 -130 24 -67 1 -122 -1 -122 -4z
m39 -54 c0 -5 -4 -3 -9 5 -5 8 -9 22 -9 30 0 16 17 -16 18 -35z m201 35 c0 -5
-2 -10 -4 -10 -3 0 -8 5 -11 10 -3 6 -1 10 4 10 6 0 11 -4 11 -10z m437 -12
c-3 -8 -6 -5 -6 6 -1 11 2 17 5 13 3 -3 4 -12 1 -19z m163 -118 c-24 -66 -45
-118 -47 -116 -2 2 15 58 39 124 24 66 45 118 47 116 2 -2 -15 -58 -39 -124z
m-173 78 c-3 -8 -6 -5 -6 6 -1 11 2 17 5 13 3 -3 4 -12 1 -19z m-603 -48 c5
-17 4 -20 -2 -10 -5 8 -13 26 -16 40 -5 17 -4 20 2 10 5 -8 13 -26 16 -40z
m582 -16 c-8 -21 -15 -34 -15 -28 -1 15 20 76 25 71 2 -2 -2 -21 -10 -43z
m-348 -84 c0 -8 -8 8 -18 35 -10 28 -18 57 -18 65 0 8 8 -7 18 -35 10 -27 18
-57 18 -65z m-198 5 c0 -5 -5 -3 -10 5 -5 8 -10 20 -10 25 0 6 5 3 10 -5 5 -8
10 -19 10 -25z m520 -2 c-11 -17 -11 -17 -6 0 3 10 6 24 7 30 0 9 2 9 5 0 3
-7 0 -20 -6 -30z m-481 -118 c0 -15 -38 78 -38 95 0 8 9 -7 19 -35 11 -27 20
-54 19 -60z m180 45 c0 -9 -4 -8 -9 5 -5 11 -9 27 -9 35 0 9 4 8 9 -5 5 -11 9
-27 9 -35z m285 16 c-3 -15 -8 -25 -11 -23 -2 3 -1 17 3 31 3 15 8 25 11 23 2
-3 1 -17 -3 -31z m-17 -58 c-3 -8 -6 -5 -6 6 -1 11 2 17 5 13 3 -3 4 -12 1
-19z m-427 -53 c0 -5 -5 -3 -10 5 -5 8 -10 20 -10 25 0 6 5 3 10 -5 5 -8 10
-19 10 -25z m207 -48 c25 -79 30 -115 7 -52 -23 63 -45 139 -37 132 4 -4 17
-40 30 -80z m204 56 c-12 -20 -14 -14 -5 12 4 9 9 14 11 11 3 -2 0 -13 -6 -23z
m178 -32 c-6 -18 -13 -30 -15 -28 -2 2 1 18 7 36 6 18 13 30 15 28 2 -2 -1
-18 -7 -36z m-192 -13 c-3 -8 -6 -5 -6 6 -1 11 2 17 5 13 3 -3 4 -12 1 -19z
m-377 -23 c0 -5 -5 -3 -10 5 -5 8 -10 20 -10 25 0 6 5 3 10 -5 5 -8 10 -19 10
-25z m34 -95 c5 -20 3 -19 -8 5 -7 17 -16 41 -20 55 -5 20 -3 19 8 -5 7 -16
16 -41 20 -55z m495 21 c-6 -18 -13 -30 -15 -28 -2 2 1 18 7 36 6 18 13 30 15
28 2 -2 -1 -18 -7 -36z m-182 -3 c-3 -8 -6 -5 -6 6 -1 11 2 17 5 13 3 -3 4
-12 1 -19z m-17 -62 c-6 -20 -15 -38 -19 -41 -5 -2 -1 15 8 40 18 52 28 53 11
1z m-81 -51 c0 -5 -4 -3 -9 5 -5 8 -9 22 -9 30 0 16 17 -16 18 -35z m-179 -9
c0 -26 -6 -18 -14 19 -5 22 -4 26 4 15 5 -8 10 -24 10 -34z m39 -111 c0 -5 -4
-3 -9 5 -5 8 -9 22 -9 30 0 16 17 -16 18 -35z m308 -77 c-3 -8 -6 -5 -6 6 -1
11 2 17 5 13 3 -3 4 -12 1 -19z m-74 -45 c-34 -2 -93 -2 -130 0 -37 2 -9 3 62
3 72 0 102 -1 68 -3z"/>
<path d="M8040 3232 c0 -5 7 -15 15 -22 8 -7 15 -8 15 -2 0 5 -7 15 -15 22 -8
7 -15 8 -15 2z"/>
</g>
</svg>
